<?xml version="1.0" encoding="utf-8"?>
<!-- Generator: Adobe Illustrator 24.1.3, SVG Export Plug-In . SVG Version: 6.00 Build 0)  -->
<svg version="1.1" id="Layer_1" xmlns="http://www.w3.org/2000/svg" xmlns:xlink="http://www.w3.org/1999/xlink" x="0px" y="0px"
	 viewBox="0 0 222.85 217.6" style="enable-background:new 0 0 222.85 217.6;" xml:space="preserve">
<style type="text/css">
	.st0{fill:#3FA9F5;}
	.st1{fill:#FFFFFF;}
</style>
<g>
	<g>
		<circle class="st0" cx="111.5" cy="109.26" r="102.5"/>
	</g>
	<g>
		<path class="st1" d="M95.96,135.17c-0.43-0.43-0.64-0.95-1.96-1.56v-5.88c1.32-6.12,2.88-11.04,6-14.78
			c3.12-3.73,7.62-7.68,13.5-11.84c4.77-3.3,8.32-6.24,10.65-8.81c2.32-2.57,3.49-5.69,3.49-9.36c0-3.92-1.47-7.07-4.41-9.46
			s-6.79-3.58-11.57-3.58c-5.14,0-9.27,1.29-12.39,3.86S95,83.67,95,83.67v2.94c0,1.35-0.74,2.03-2.21,2.03l-21.57-0.92
			c-0.7,0-1.28-0.28-1.74-0.84c-0.33-0.4-0.47-0.93-0.47-1.46l0-1.8c0-7.34,1.83-13.86,5.47-19.55s8.73-10.1,15.23-13.22
			c6.51-3.12,14.02-4.68,22.53-4.68c8.27,0,15.54,1.5,21.8,4.5c6.26,3,11.1,7.19,14.5,12.58c3.4,5.39,5.11,11.63,5.11,18.73
			c0,5.39-0.94,10.01-2.83,13.86c-1.89,3.86-4.17,7.01-6.84,9.46c-2.68,2.45-6.08,5.14-10.22,8.08c-4.38,3.06-7.6,5.69-9.67,7.9
			c-2.07,2.2-3.1,4.9-3.1,8.08v4.15c0,0.52-0.14,1.05-0.47,1.45c-0.46,0.55-1.03,0.83-1.72,0.83H97.52
			C97.52,135.76,96.39,135.6,95.96,135.17z M97.06,172.81c-2.75-2.75-4.13-6.21-4.13-10.37c0-4.16,1.35-7.59,4.04-10.28
			c2.69-2.69,6.18-4.04,10.47-4.04c4.28,0,7.74,1.32,10.37,3.95c2.63,2.63,3.95,6.09,3.95,10.37c0,4.16-1.35,7.62-4.04,10.37
			c-2.69,2.75-6.12,4.13-10.28,4.13C103.27,176.94,99.82,175.56,97.06,172.81z"/>
	</g>
</g>
<g>
</g>
<g>
</g>
<g>
</g>
<g>
</g>
<g>
</g>
<g>
</g>
<g>
</g>
<g>
</g>
<g>
</g>
<g>
</g>
<g>
</g>
<g>
</g>
<g>
</g>
<g>
</g>
<g>
</g>
</svg>
